# xmcd CD database file
#
# Track frame offsets:
#	150
#	40356
#	84287
#	122602
#
# Disc length: 2157 seconds
#
# Revision: 0
# Processed by: cddbd v1.5.1PL2 Copyright (c) Steve Scherf et al.
# Submitted via: CDex 1.51
#
DISCID=27086b04
DTITLE=Empire State - Niagara [Lost Language]
DYEAR=2004
DGENRE=Trance
TTITLE0=Niagara (Original Mix)
TTITLE1=Niagara (Espen and Elusive Mix)
TTITLE2=Niagara (John Askew Mix)
TTITLE3=Adironda (Original Mix)
EXTD=YEAR: 2004
EXTT0=
EXTT1=
EXTT2=
EXTT3=
PLAYORDER=
